# xmcd
#
# Track frame offsets:
#	150
#	19725
#	37919
#	54502
#	78107
#	103207
#	122316
#	141571
#	171755
#	191302
#	215259
#	242232
#	268145
#
# Disc length: 4078 seconds
#
# Revision: 0
# Processed by: cddbd v1.4PL0 Copyright (c) Steve Scherf et al.
# Submitted via: dBpowerAMP V4.0
#
DISCID=ad0fec0d
DTITLE=Popa Chubby  - The Good, the Bad and the Chubby
DYEAR=2002
DGENRE=Blues
TTITLE0=Somebody Let The Devil Out
TTITLE1=If The Diesel Don't Get You Then The Jet Fuel Will
TTITLE2=I Can't See The Light Of Day
TTITLE3=I'll Be There For You
TTITLE4=Stress Will Kill You Every Time
TTITLE5=No Trouble No More
TTITLE6=Bad Connection
TTITLE7=My Last Cigarette
TTITLE8=Strange Way Of Saying I Love You
TTITLE9=Already Stoned
TTITLE10=Dirty Lie
TTITLE11=Passion
TTITLE12=Play It From The Heart
EXTD=
EXTT0=
EXTT1=
EXTT2=
EXTT3=
EXTT4=
EXTT5=
EXTT6=
EXTT7=
EXTT8=
EXTT9=
EXTT10=
EXTT11=
EXTT12=
PLAYORDER=
